<mxfile host="app.diagrams.net" modified="2023-07-20T11:55:25.114Z" agent="Mozilla/5.0 (Macintosh; Intel Mac OS X 10_15_7) AppleWebKit/537.36 (KHTML, like Gecko) Chrome/114.0.0.0 Safari/537.36" etag="_wDbvgr-TEexdYKualnH" version="21.6.3" type="device">
  <diagram name="페이지-1" id="g8TDwZ_U92z7iWjUAPcz">
    <mxGraphModel dx="1272" dy="788" grid="1" gridSize="10" guides="1" tooltips="1" connect="1" arrows="1" fold="1" page="1" pageScale="1" pageWidth="2339" pageHeight="3300" math="0" shadow="0">
      <root>
        <mxCell id="0" />
        <mxCell id="1" parent="0" />
        <mxCell id="JQkgYCDHWZVRYG8NsTFr-6" style="edgeStyle=orthogonalEdgeStyle;rounded=0;orthogonalLoop=1;jettySize=auto;html=1;entryX=0.5;entryY=1;entryDx=0;entryDy=0;exitX=1;exitY=0.5;exitDx=0;exitDy=0;" edge="1" parent="1" source="JQkgYCDHWZVRYG8NsTFr-1" target="JQkgYCDHWZVRYG8NsTFr-5">
          <mxGeometry relative="1" as="geometry">
            <mxPoint x="1000" y="445.0666666666666" as="sourcePoint" />
          </mxGeometry>
        </mxCell>
        <mxCell id="JQkgYCDHWZVRYG8NsTFr-1" value="유저정보" style="rounded=1;arcSize=10;whiteSpace=wrap;html=1;align=center;" vertex="1" parent="1">
          <mxGeometry x="610" y="410" width="180" height="70" as="geometry" />
        </mxCell>
        <mxCell id="JQkgYCDHWZVRYG8NsTFr-7" style="edgeStyle=orthogonalEdgeStyle;rounded=0;orthogonalLoop=1;jettySize=auto;html=1;entryX=0.5;entryY=1;entryDx=0;entryDy=0;exitX=0;exitY=0.5;exitDx=0;exitDy=0;" edge="1" parent="1" source="JQkgYCDHWZVRYG8NsTFr-9" target="JQkgYCDHWZVRYG8NsTFr-5">
          <mxGeometry relative="1" as="geometry">
            <mxPoint x="1210" y="445" as="sourcePoint" />
          </mxGeometry>
        </mxCell>
        <mxCell id="JQkgYCDHWZVRYG8NsTFr-5" value="예약정보" style="shape=rhombus;perimeter=rhombusPerimeter;whiteSpace=wrap;html=1;align=center;" vertex="1" parent="1">
          <mxGeometry x="1040" y="280" width="120" height="60" as="geometry" />
        </mxCell>
        <mxCell id="JQkgYCDHWZVRYG8NsTFr-8" value="패스워드" style="ellipse;whiteSpace=wrap;html=1;align=center;" vertex="1" parent="1">
          <mxGeometry x="530" y="550" width="100" height="40" as="geometry" />
        </mxCell>
        <mxCell id="JQkgYCDHWZVRYG8NsTFr-9" value="유저정보" style="rounded=1;arcSize=10;whiteSpace=wrap;html=1;align=center;" vertex="1" parent="1">
          <mxGeometry x="1410" y="410" width="180" height="70" as="geometry" />
        </mxCell>
        <mxCell id="JQkgYCDHWZVRYG8NsTFr-12" value="ID" style="ellipse;whiteSpace=wrap;html=1;align=center;fontStyle=4;" vertex="1" parent="1">
          <mxGeometry x="400" y="550" width="100" height="40" as="geometry" />
        </mxCell>
        <mxCell id="JQkgYCDHWZVRYG8NsTFr-13" value="이름" style="ellipse;whiteSpace=wrap;html=1;align=center;" vertex="1" parent="1">
          <mxGeometry x="660" y="550" width="100" height="40" as="geometry" />
        </mxCell>
        <mxCell id="JQkgYCDHWZVRYG8NsTFr-14" value="전화번호" style="ellipse;whiteSpace=wrap;html=1;align=center;" vertex="1" parent="1">
          <mxGeometry x="790" y="550" width="100" height="40" as="geometry" />
        </mxCell>
      </root>
    </mxGraphModel>
  </diagram>
</mxfile>
